<svg id="Capa_1" enable-background="new 0 0 512.002 512.002" height="512" viewBox="0 0 512.002 512.002" width="512" xmlns="http://www.w3.org/2000/svg"><g><g id="_x3C_Group_x3E__81_"><g><path d="m134.21 177.474c-3.37-.065-6.738-1.258-9.492-3.625-8.41-7.228-13.597-20.762-23.12-39.573-6.723-13.281-17.975-26.764-19.602-40.828-.952-8.229 4.954-15.672 13.192-16.622 8.233-.964 15.687 4.947 16.639 13.179.854 7.381 3.235 18.873 9.729 31.703 7.298 14.414 16.396 23.943 22.744 29.397 6.287 5.402 6.999 14.874 1.592 21.154-3.037 3.528-7.361 5.298-11.682 5.215z" fill="#f5fcff"/></g><path d="m146.222 168.474c-3.37-.065-6.738-1.258-9.492-3.625-8.41-7.228-20.436-19.792-29.959-38.603-6.723-13.281-11.136-27.735-12.763-41.799-.311-2.689.121-5.289 1.117-7.611-8.204.981-14.079 8.404-13.129 16.611 1.627 14.064 6.04 28.518 12.763 41.799 9.523 18.811 21.549 31.375 29.959 38.603 2.755 2.367 6.122 3.56 9.492 3.625 4.32.084 8.645-1.687 11.682-5.215 1.036-1.203 1.842-2.523 2.433-3.909-.698.084-1.399.137-2.103.124z" fill="#e6f7fe"/><path d="m178.704 165.765-53.91 41.861-17.069-12.755c-5.075-6.555-15.972-20.827-9.412-25.896l50.917-39.342c6.551-5.062 15.964-3.859 21.032 2.687l6.798 8.781z" fill="#8a94db"/><path d="m96.521 16.754 2.238 33.312c.057.853.761 1.518 1.617 1.528l33.626.408c1.49.018 2.186 1.851 1.082 2.851l-24.82 22.486c-.637.577-.719 1.547-.19 2.223l1.291 1.648 11.696 21.162c.918 1.172-.077 2.86-1.548 2.627l-32.873-5.487c-.844-.133-1.649.403-1.85 1.232l-1.191 26.412c-.35 1.441-2.284 1.713-3.019.425l-16.045-22.412c-.422-.74-1.342-1.033-2.115-.675l-27.162 13.952c-1.35.625-2.768-.723-2.211-2.1l13.104-29.559c.322-.795-.025-1.703-.794-2.083l-29.674-13.066c-1.337-.659-1.171-2.614.258-3.039l28.508-7.855c.822-.244.744-2.639.562-3.477l-7.08-32.624c-.315-1.451 1.31-2.538 2.534-1.695l27.65 19.045c.701.483 1.656.349 2.198-.308l21.304-25.863c.944-1.145 2.804-.548 2.904.932z" fill="#e27f86"/><path d="m129.152 108.523-33.22-5.25c-.84-.13-1.65.4-1.85 1.23l-7.88 32.47c-.35 1.44-2.29 1.71-3.02.42l-16.59-29.06c-.42-.74-1.34-1.04-2.11-.68l-30.5 14.12c-1.35.63-2.77-.72-2.21-2.1l12.54-30.95c.32-.8-.03-1.71-.8-2.09l-30.1-14.84c-1.33-.66-1.17-2.61.26-3.04l32.2-9.57c.8-.23 1.29-1.02 1.16-1.83 15.58 14.85 36.67 23.97 59.89 23.97 1.49 0 2.97-.04 4.44-.11l19.34 24.68c.92 1.17-.08 2.86-1.55 2.63z" fill="#df646e"/><path d="m189.146 156.713-4.09-5.282-7.997-10.329c-22.57 10.001-42.882 24.151-59.986 41.471-2.131 2.158-5.665 1.964-7.522-.434l-10.583-13.669-.659.51c-6.557 5.068-7.761 14.494-2.687 21.047l14.045 18.141 4.824 6.23z" fill="#717ed4"/><ellipse cx="256.25" cy="319.725" fill="#8a94db" rx="177" ry="176.823"/><path d="m275.334 477.483c-85.209 0-156.355-60.15-173.213-140.266-.553-2.628-11.919-5.889-12.354-8.558-.974-5.979 9.224-11.448 8.867-17.613-.199-3.436-.3-6.899-.3-10.386 0-43.976 16.075-84.197 42.668-115.134-37.802 32.43-61.752 80.518-61.752 134.199 0 97.657 79.246 176.823 177 176.823 53.735 0 101.871-23.926 134.332-61.69-30.967 26.566-71.228 42.625-115.248 42.625z" fill="#717ed4"/><g><g><g><path d="m434.63 415.631c-42.658 0-77.476-34.17-78.471-76.55-1.005-42.843 33.208-78.969 76.086-80.243 16.393-.487 32.285 4.055 45.832 13.064 7.038 4.68 9.383 14.182 4.869 21.322-4.678 7.399-14.513 9.42-21.717 4.557-8.389-5.662-18.3-8.476-28.523-8.073-24.932.982-45.105 21.514-45.658 46.434-.593 26.706 20.981 48.621 47.582 48.621 20.401 0 31.467-12.882 36.178-28.198.597-1.942-.831-3.914-2.865-3.914h-16.173c-8.319 0-15.477-6.386-15.868-14.688-.418-8.863 6.652-16.18 15.432-16.18h37.719c8.533 0 15.45 6.919 15.449 15.444-.004 46.164-28.736 78.404-69.872 78.404z" fill="#faf063"/></g></g><g><path d="m446.642 406.631c-42.658 0-77.476-34.17-78.471-76.55-.552-23.535 9.538-45.028 25.84-59.845-23.193 14.158-38.53 39.966-37.852 68.845.995 42.38 35.813 76.55 78.471 76.55 18.488 0 34.457-6.529 46.452-17.891-9.936 5.741-21.582 8.891-34.44 8.891z" fill="#f5de46"/></g><g><g><path d="m252.083 415.117c-8.31-.391-14.702-7.542-14.702-15.852v-124.841c0-6.231 3.512-12.081 9.227-14.577 6.871-3.002 14.768-.672 18.936 5.359l54.199 78.405c1.682 2.434 5.503 1.224 5.474-1.734l-.658-67.988c-.082-8.523 6.768-15.499 15.3-15.582.05-.001.102-.001.152-.001 8.464 0 15.363 6.812 15.446 15.285l1.178 121.716v.149c0 8.349-4.744 15.223-12.087 17.514-7.193 2.244-14.78-.552-19.332-7.122l-51.461-74.443c-1.674-2.422-5.474-1.238-5.474 1.705v66.59c-.001 8.772-7.326 15.834-16.198 15.417z" fill="#faf063"/></g></g><g fill="#f5de46"><path d="m322.869 348.109c5.613 8.076 18.301 4.059 18.232-5.773l-.527-75.447c-.03-3.049.84-5.893 2.345-8.301-.943-.18-1.914-.282-2.909-.282-.05 0-.102 0-.152.001-8.532.083-15.382 7.059-15.3 15.582l.658 67.988c.004 1.298-.823 2.458-2.04 2.869-1.257.425-2.664-.037-3.434-1.135 1.042 1.499 2.085 2.998 3.127 4.498z"/><path d="m253.397 392.264v-124.84c0-3.077.86-6.06 2.415-8.593-2.999-.59-6.2-.297-9.204 1.015-5.715 2.497-9.227 8.346-9.227 14.577v124.841c0 8.311 6.393 15.461 14.702 15.852 5.846.275 11.005-2.709 13.855-7.279-7.228-1.41-12.541-8.001-12.541-15.573z"/><path d="m341.231 398.848-54.834-79.139c-5.586-8.061-18.241-4.113-18.241 5.691l.124 7.709c.033-1.213.741-2.293 1.806-2.752 1.256-.541 2.791-.122 3.668 1.047 17.154 24.814 34.307 49.629 51.461 74.443 4.552 6.571 12.14 9.366 19.333 7.122 3.641-1.136 6.641-3.402 8.743-6.413-4.688-.668-9.042-3.352-12.06-7.708z"/></g><path d="m236.382 394.251-46.915-124.192c-.053-.142-.109-.282-.166-.421-2.835-6.886-9.479-11.332-16.931-11.332-.006 0-.012 0-.017 0-7.459.006-14.103 4.466-16.928 11.363-.048.116-.094.234-.139.352l-47.345 124.187c-3.037 7.966.965 16.883 8.939 19.917 7.974 3.037 16.899-.964 19.936-8.93l7.265-19.056c.444-1.163 1.56-1.932 2.806-1.932h50.597c1.249 0 2.368.773 2.81 1.941l7.179 19.003c2.334 6.181 8.213 9.99 14.457 9.989 1.813 0 3.656-.321 5.453-.998 7.982-3.012 12.012-11.916 8.999-19.891zm-78.245-44.981 11.359-29.794c.984-2.581 4.64-2.575 5.616.009l11.255 29.794c.741 1.962-.71 4.059-2.81 4.059h-22.614c-2.103 0-3.555-2.104-2.806-4.068z" fill="#faf063"/><g><path d="m123.957 394.207 47.345-124.187c.045-.118.091-.235.139-.352 1.75-4.272 4.968-7.606 8.935-9.529-2.441-1.183-5.164-1.834-8.006-1.834-.006 0-.012 0-.017 0-7.459.006-14.103 4.466-16.928 11.363-.048.116-.094.234-.139.352l-47.345 124.187c-3.037 7.966.965 16.883 8.939 19.917 4.629 1.763 9.572 1.142 13.504-1.238-6.26-3.787-9.125-11.603-6.427-18.679z" fill="#f5de46"/></g><path d="m96.728 327.083c4.615-7 7.31-15.37 7.31-24.361 0-24.491-19.946-44.417-44.462-44.417h-36.625c-8.532 0-15.449 6.91-15.449 15.434v58.001.094 67.866c0 4.106 1.637 8.042 4.549 10.938 2.896 2.881 6.815 4.496 10.9 4.496h.069c.336-.002 33.797-.15 42.952-.15 27.233 0 49.389-22.133 49.389-49.339 0-15.595-7.289-29.513-18.633-38.562zm-37.544-37.909c7.295 0 13.58 5.589 13.939 12.868.383 7.78-5.841 14.231-13.546 14.231-2.718 0-7.779.015-13.293.034h-4.88c-1.659 0-3.003-1.343-3.003-3v-21.133c0-1.657 1.344-3 3.003-3zm6.788 94.943c-4.561 0-15.066.036-24.561.073-1.663.007-3.011-1.339-3.011-3v-30.996c0-1.652 1.337-2.994 2.992-3 1.673-.006 3.355-.013 4.996-.018h19.13c10.013 0 18.551 7.763 18.93 17.758.398 10.507-8.044 19.183-18.476 19.183z" fill="#faf063"/><g><path d="m80.988 399.985c-9.155 0-42.616.148-42.952.15-.023 0-.046 0-.069 0-13.032 0-15.449-4.837-15.449-13.694v-69.605-.094-58.002c0-.139.017-.274.021-.413-8.339.221-15.036 7.029-15.036 15.413v58.001.094 67.598c0 2.328.433 4.655 1.425 6.762 2.645 5.614 8.165 8.939 14.024 8.939h.069c.336-.002 33.797-.15 42.952-.15 17.452 0 32.807-9.098 41.594-22.787-7.68 4.921-16.798 7.788-26.579 7.788z" fill="#f5de46"/></g></g></g><g><path d="m505.285 320.439c-4.333-4.331-10.092-6.717-16.217-6.717h-37.681c-11.625-.169-23.746 10.512-22.908 24.018.577 12.235 10.831 21.819 23.344 21.819h9.629c-4.105 8.747-11.911 17.08-26.751 17.08-10.854 0-21.023-4.285-28.634-12.067-7.593-7.764-11.643-18.006-11.402-28.838.468-21.072 17.34-38.229 38.41-39.06 8.616-.344 16.922 2.008 24.003 6.786 9.354 6.645 25.448 4.548 32.23-6.76 6.595-10.43 3.432-24.585-7.05-31.555-14.873-9.891-32.224-14.814-50.162-14.303-29.08.864-54.45 16.27-69.329 39.016l-.158-16.357c-.121-12.516-10.408-22.697-22.93-22.697-11.367-.202-23.224 9.998-22.936 23.139l.516 53.247-45.802-66.258c-6.223-9.004-18.035-12.353-28.089-7.963-8.332 3.64-13.715 12.055-13.715 21.437v81.272l-33.346-88.271c-3.355-9.322-13.549-16.66-24.123-16.603-9.893-.142-20.317 6.665-24.052 16.53l-29.42 77.169c-2.826-7.07-7.066-13.547-12.56-19.038 3.477-7.068 5.292-14.836 5.292-22.79 0-28.603-23.291-51.872-51.918-51.872h-36.59c-12.646 0-22.934 10.281-22.934 22.918v73.866c0 4.143 3.358 7.5 7.5 7.5s7.5-3.357 7.5-7.5v-73.866c0-4.366 3.559-7.918 7.934-7.918h36.588c20.356 0 36.918 16.541 36.918 36.872 0 7.202-2.097 14.19-6.064 20.207-2.136 3.239-1.449 7.573 1.584 9.992 10.036 8.004 15.791 19.908 15.791 32.661 0 23.043-18.769 41.789-41.839 41.789-9.153 0-42.695.148-42.978.149-3.265-.075-7.648-2.554-7.934-7.918v-16.961c0-4.143-3.358-7.5-7.5-7.5s-7.5 3.357-7.5 7.5v16.961c-.154 11.289 9.944 23.176 23.046 22.918.271-.002 33.749-.149 42.866-.149 13.548 0 25.998-4.767 35.774-12.701 2.564 5.242 6.933 9.265 12.413 11.35 11.815 4.502 25.091-1.446 29.594-13.257l6.152-16.139h44.338l6.072 16.071c4.405 11.031 17.063 17.967 29.553 13.351 2.779-1.048 5.271-2.599 7.397-4.545 3.804 3.504 8.768 5.736 14.28 5.995 5.144.268 11.936-1.64 16.934-6.314 4.512-4.305 7.099-10.348 7.099-16.579v-52.1l43.213 62.513c6.454 9.315 17.331 13.238 27.711 10.003 10.535-3.286 17.341-12.965 17.341-24.656v-.112c0-.012 0-.097 0-.108l-.098-10.175c3.185 4.653 6.846 9.03 10.968 13.058 16.163 15.797 37.488 24.497 60.046 24.497 22.043 0 41.899-8.658 55.909-24.379 13.793-15.478 21.391-37.3 21.393-61.446-.001-6.123-2.386-11.88-6.718-16.212zm-276.341 82.377c-.873 1.928-2.445 3.401-4.427 4.149-2.989 1.069-7.98.254-10.228-4.615l-7.171-18.983c-1.534-4.061-5.481-6.788-9.823-6.788h-50.547c-4.328 0-8.271 2.716-9.812 6.758l-7.257 19.037c-1.558 4.085-6.15 6.141-10.242 4.582-3.02-1.228-6.234-5.107-4.589-10.215l47.301-124.069.068-.173c1.665-4.063 5.581-6.69 9.988-6.694 4.392 0 8.309 2.62 9.988 6.698l46.944 124.261c.747 1.977.678 4.127-.193 6.052zm113.033 2.838c-4.051 1.264-8.232-.356-10.91-4.22l-51.409-74.368c-2.627-3.802-7.354-5.428-11.766-4.055-4.41 1.376-7.373 5.403-7.373 10.021v66.524c-.078 3.367-2.756 7.885-8.328 7.909-4.158-.195-7.541-3.938-7.541-8.345v-124.714c0-3.367 1.897-6.457 4.719-7.69 3.495-1.525 7.592-.371 9.746 2.745l54.145 78.328c2.64 3.818 7.39 5.439 11.814 4.036 4.425-1.403 7.368-5.465 7.323-10.106l-.658-67.92c.072-3.304 2.408-7.613 7.937-7.994 4.331 0 7.889 3.518 7.931 7.842l1.176 121.522v.148c.002 5.066-2.606 9.027-6.806 10.337zm92.723 1.823c-38.197 0-70-31.021-70.895-69.15-.911-38.818 29.923-71.337 68.735-72.489 13.421-.527 29.517 3.679 41.411 11.799 3.751 2.494 4.952 7.45 2.677 11.048-1.845 2.781-6.441 5.171-11.16 2.344-9.747-6.578-21.15-9.811-32.986-9.342-28.972 1.142-52.171 24.735-52.815 53.715-.331 14.901 5.236 28.986 15.675 39.659 10.457 10.691 24.434 16.579 39.358 16.579 20.983 0 36.769-12.197 43.311-33.466.979-3.184.384-6.683-1.593-9.357-1.969-2.666-5.124-4.257-8.438-4.257h-16.157c-4.414 0-8.165-3.376-8.36-7.526-.087-3.373 2.369-8.006 7.925-8.311h37.681c2.12 0 4.112.825 5.611 2.324 1.498 1.498 2.323 3.488 2.323 5.604-.005 41.701-25.624 70.826-62.303 70.826z"/><path d="m181.96 316.77c-1.556-4.116-5.405-6.78-9.807-6.787-.005 0-.01 0-.016 0-4.396 0-8.246 2.651-9.811 6.759l-11.348 29.765v.001c-1.229 3.227-.794 6.85 1.165 9.692 1.96 2.844 5.192 4.542 8.647 4.542h22.592c3.449 0 6.678-1.693 8.639-4.53 1.959-2.835 2.402-6.452 1.184-9.675zm-14.637 28.971 4.795-12.578 4.751 12.578z"/><path d="m30.87 381.065c0 2.813 1.097 5.455 3.089 7.439 1.981 1.973 4.609 3.058 7.403 3.058h.044c9.475-.037 19.956-.073 24.507-.073 13.294.275 26.763-11.974 25.953-26.947-.53-13.995-12.128-24.957-26.406-24.957h-19.137l-4.991.019c-5.769.021-10.462 4.729-10.462 10.497zm15-26.478 19.591-.002c6.076 0 11.197 4.721 11.417 10.523.155 4.976-3.927 11.297-10.963 11.381-3.846 0-11.915.025-20.044.056v-21.958z"/><path d="m41.37 323.747c5 .009 13.702-.033 18.154-.033 5.732 0 11.29-2.385 15.249-6.544 4.011-4.213 6.062-9.733 5.775-15.543-.551-11.207-9.958-19.985-21.416-19.985h-17.762c-5.79 0-10.5 4.709-10.5 10.497v21.112c0 5.787 4.71 10.496 10.5 10.496zm4.5-27.105h13.262c3.393 0 6.278 2.567 6.434 5.724.082 1.668-.507 3.253-1.658 4.463-1.158 1.216-2.714 1.886-4.384 1.886-1.865-.002-7.444.015-13.654.033z"/><path d="m10.173 78.701 25.183 12.417-10.479 25.875c-1.417 3.498-.565 7.44 2.167 10.044 2.735 2.603 6.716 3.26 10.145 1.675l25.579-11.848 13.901 24.36c1.649 2.891 4.663 4.612 7.916 4.611.43 0 .864-.029 1.299-.091 1.813-.256 3.444-1.034 4.75-2.179 2.838 5.095 5.979 10.001 9.416 14.663l-6.338 4.897c-8.871 6.617-12.005 21.514-4.032 31.548l15.136 19.55c-4.713 6.771-9.023 13.904-12.868 21.388-1.893 3.685-.44 8.205 3.245 10.098 1.097.563 2.267.831 3.42.831 2.722-.001 5.348-1.487 6.678-4.075 29.171-56.787 86.92-92.064 150.711-92.064 17.364 0 34.484 2.616 50.885 7.777 3.953 1.242 8.162-.952 9.405-4.903s-.952-8.162-4.903-9.405c-17.859-5.619-36.494-8.469-55.387-8.469-22.636 0-44.563 4.104-64.951 11.746l-14.93-19.283c-7.589-9.805-21.748-11.612-31.558-4.029l-8.898 6.875c-2.772-3.855-5.271-7.954-7.451-12.262-.422-.834-.818-1.68-1.214-2.526l.941.149c3.736.595 7.39-1.134 9.306-4.396 1.916-3.259 1.647-7.288-.685-10.262l-17.242-22.009 20.75-18.799c2.804-2.54 3.75-6.468 2.409-10.006-1.341-3.539-4.652-5.854-8.435-5.898l-28.179-.343-1.873-27.875v-.001c-.253-3.76-2.735-6.934-6.323-8.086-3.589-1.151-7.455-.018-9.849 2.891l-17.862 21.688-23.192-15.974c-3.108-2.143-7.142-2.17-10.275-.067-3.134 2.101-4.642 5.84-3.842 9.526l5.919 27.275-26.959 8.015c-3.63 1.08-6.181 4.216-6.5 7.988s1.67 7.291 5.064 8.963zm143.561 57.003c3.273-2.529 7.995-1.927 10.526 1.343l12.496 16.141c-23.992 11.392-45.347 27.943-62.535 48.683l-12.681-16.379c-1.831-2.481-2.503-7.187 1.343-10.496zm-38.903-10.48c2.609 5.153 5.615 10.056 8.961 14.66l-11.867 9.169c-3.933-5.367-7.448-11.085-10.482-17.078-1.482-2.929-2.851-5.95-4.097-9.003l2.745-11.3 9.545 1.508c1.476 4.094 3.214 8.131 5.195 12.044zm-66.777-58.66c4.553-1.354 7.332-6.05 6.327-10.695l-3.932-18.119 15.425 10.625c3.937 2.716 9.2 1.98 12.244-1.712l11.9-14.447 1.246 18.551c.316 4.722 4.271 8.466 9.007 8.525l18.66.228-13.727 12.436c-3.533 3.202-3.997 8.649-1.057 12.403l11.415 14.571-18.468-2.917c-4.658-.728-9.189 2.282-10.304 6.868l-4.399 18.107-9.264-16.235c-1.685-2.952-4.728-4.623-7.905-4.623-1.297 0-2.616.278-3.874.861l-16.996 7.872 6.951-17.164c1.787-4.41-.155-9.515-4.427-11.625l-16.65-8.21z"/><path d="m337.662 171.357c27.352 15.088 49.998 37.404 65.49 64.538 1.384 2.424 3.915 3.782 6.52 3.782 1.261 0 2.539-.318 3.712-.988 3.597-2.054 4.848-6.635 2.794-10.231-16.859-29.528-41.504-53.815-71.271-70.235-3.627-2.001-8.189-.682-10.189 2.944-2.001 3.627-.683 8.189 2.944 10.19z"/><path d="m394.275 430.202c-3.122-2.722-7.86-2.396-10.582.726-14.634 16.789-32.114 30.341-51.955 40.28-3.703 1.855-5.202 6.362-3.346 10.065 1.315 2.625 3.962 4.143 6.711 4.143 1.129 0 2.275-.256 3.354-.796 21.596-10.819 40.62-25.567 56.544-43.837 2.721-3.122 2.396-7.859-.726-10.581z"/><path d="m300.479 483.147c-14.422 3.915-29.386 5.9-44.477 5.9-46.849 0-90.435-18.705-122.729-52.67-2.855-3.002-7.602-3.121-10.604-.268-3.002 2.854-3.122 7.602-.268 10.604 17.04 17.922 37.116 32.021 59.671 41.907 23.354 10.236 48.227 15.427 73.928 15.427 16.418 0 32.705-2.161 48.407-6.424 3.998-1.085 6.358-5.206 5.273-9.203-1.084-3.996-5.203-6.357-9.201-5.273z"/></g></g></svg>